<svg xmlns="http://www.w3.org/2000/svg" width="1200" height="630" viewBox="0 0 1200 630" role="img" aria-label="Footprint">
  <defs>
    <linearGradient id="bg" x1="0" y1="0" x2="1" y2="1">
      <stop offset="0" stop-color="#f7fbfb"/>
      <stop offset="1" stop-color="#e8f6f5"/>
    </linearGradient>
    <pattern id="map-grid" width="84" height="84" patternUnits="userSpaceOnUse">
      <path d="M84 0H0v84" fill="none" stroke="#d7e8e7" stroke-width="1"/>
    </pattern>
  </defs>

  <rect width="1200" height="630" fill="url(#bg)"/>
  <rect width="1200" height="630" fill="url(#map-grid)" opacity=".55"/>

  <path d="M0 468c116-76 219-88 309-36 104 61 195 52 274-27 97-97 207-108 330-32 81 50 176 54 287 12v245H0z" fill="#11bdb8" opacity=".13"/>
  <path d="M92 486c97-65 188-76 272-31 92 49 175 39 249-31 90-85 184-95 282-29 71 48 140 53 207 16" fill="none" stroke="#11bdb8" stroke-width="18" stroke-linecap="round" opacity=".36"/>

  <rect x="78" y="82" width="1044" height="466" rx="28" fill="#ffffff" opacity=".94"/>
  <rect x="78" y="82" width="1044" height="466" rx="28" fill="none" stroke="#cde4e3" stroke-width="2"/>

  <g transform="translate(142 168)">
    <rect x="0" y="0" width="916" height="220" rx="24" fill="#f7fbfb"/>
    <g id="footprint-title-logo-inline" transform="translate(70 -8) scale(0.86)">
      <path
        d="m 90.68,80.98 q -10.08,0 -16.2,6.66 -6.12,6.66 -6.12,17.64 v 4.86 h 18.36 q 3.78,0 6.12,2.16 2.34,2.16 2.34,5.76 0,3.24 -2.34,5.4 -2.34,2.16 -6.12,2.16 H 68.36 v 70.2 q 0,4.14 -2.52,6.66 -2.52,2.52 -7.02,2.52 -3.6,0 -6.3,-2.52 Q 50,199.96 50,195.82 v -70.2 h -7.74 q -3.78,0 -6.12,-2.16 -2.34,-2.16 -2.34,-5.4 0,-3.6 2.34,-5.76 2.34,-2.16 6.12,-2.16 H 50 v -3.06 q 0,-12.78 5.04,-22.32 5.22,-9.72 14.4,-14.94 9.36,-5.4 21.24,-5.4 3.96,0 6.48,2.34 2.7,2.34 2.7,5.94 0,3.6 -2.7,5.94 -2.52,2.34 -6.48,2.34 z m 64.62002,124.74 q -14.4,0 -25.74,-6.3 -11.34,-6.48 -17.64,-17.82 -6.3,-11.34 -6.3,-25.74 0,-14.58 6.3,-25.92 6.3,-11.34 17.64,-17.64 11.34,-6.48 25.74,-6.48 14.22,0 25.38,6.48 11.34,6.3 17.64,17.64 6.48,11.34 6.48,25.92 0,14.4 -6.3,25.74 -6.3,11.34 -17.64,17.82 -11.16,6.3 -25.56,6.3 z m 0,-16.2 q 9.18,0 16.38,-4.32 7.38,-4.32 11.34,-11.88 4.14,-7.74 4.14,-17.46 0,-9.72 -4.14,-17.46 -3.96,-7.74 -11.34,-12.06 -7.2,-4.32 -16.38,-4.32 -9.18,0 -16.56,4.32 -7.2,4.32 -11.34,12.06 -4.14,7.74 -4.14,17.46 0,9.72 4.14,17.46 4.14,7.56 11.34,11.88 7.38,4.32 16.56,4.32 z m 121.49986,16.2 q -14.4,0 -25.74,-6.3 -11.34,-6.48 -17.64,-17.82 -6.3,-11.34 -6.3,-25.74 0,-14.58 6.3,-25.92 6.3,-11.34 17.64,-17.64 11.34,-6.48 25.74,-6.48 14.22,0 25.38,6.48 11.34,6.3 17.64,17.64 6.48,11.34 6.48,25.92 0,14.4 -6.3,25.74 -6.3,11.34 -17.64,17.82 -11.16,6.3 -25.56,6.3 z m 0,-16.2 q 9.18,0 16.38,-4.32 7.38,-4.32 11.34,-11.88 4.14,-7.74 4.14,-17.46 0,-9.72 -4.14,-17.46 -3.96,-7.74 -11.34,-12.06 -7.2,-4.32 -16.38,-4.32 -9.18,0 -16.56,4.32 -7.2,4.32 -11.34,12.06 -4.14,7.74 -4.14,17.46 0,9.72 4.14,17.46 4.14,7.56 11.34,11.88 7.38,4.32 16.56,4.32 z M 395.59975,187 q 3.24,0 5.4,2.52 2.34,2.52 2.34,6.48 0,3.96 -3.06,6.48 -2.88,2.52 -7.56,2.52 h -3.24 q -8.82,0 -16.2,-4.5 -7.2,-4.68 -11.34,-12.6 -4.14,-7.92 -4.14,-17.82 v -44.46 h -8.28 q -3.78,0 -6.12,-2.16 -2.34,-2.16 -2.34,-5.4 0,-3.6 2.34,-5.76 2.34,-2.16 6.12,-2.16 h 8.28 V 84.22 q 0,-3.96 2.52,-6.48 2.52,-2.52 6.48,-2.52 3.96,0 6.48,2.52 2.52,2.52 2.52,6.48 v 25.92 h 15.3 q 3.78,0 6.12,2.16 2.34,2.16 2.34,5.76 0,3.24 -2.34,5.4 -2.34,2.16 -6.12,2.16 h -15.3 v 44.46 q 0,7.2 3.96,12.06 3.96,4.86 9.72,4.86 z m 79.73984,-81.18 q 13.86,0 25.2,6.66 11.52,6.48 18,18 6.48,11.34 6.48,25.38 0,14.04 -6.12,25.56 -5.94,11.34 -16.56,17.82 -10.44,6.48 -23.4,6.48 -10.44,0 -19.44,-4.32 -9,-4.32 -15.3,-12.06 v 48.6 q 0,4.14 -2.52,6.66 -2.52,2.52 -6.66,2.52 -3.96,0 -6.66,-2.52 -2.52,-2.52 -2.52,-6.66 v -82.08 q 0,-14.04 6.48,-25.38 6.66,-11.52 17.82,-18 11.34,-6.66 25.2,-6.66 z m 0,83.7 q 9,0 16.2,-4.32 7.38,-4.5 11.52,-12.06 4.32,-7.74 4.32,-17.28 0,-9.54 -4.32,-17.28 -4.14,-7.74 -11.52,-12.06 -7.2,-4.5 -16.2,-4.5 -9,0 -16.38,4.5 -7.2,4.32 -11.34,12.06 -4.14,7.74 -4.14,17.28 0,9.54 4.14,17.28 4.14,7.56 11.34,12.06 7.38,4.32 16.38,4.32 z m 125.27982,-84.06 q 9.54,0 14.94,2.88 5.4,2.88 5.4,7.2 0,1.26 -0.18,1.8 -1.62,5.76 -7.2,5.76 -0.9,0 -2.7,-0.36 -7.2,-1.26 -11.7,-1.26 -12.96,0 -20.88,5.94 -7.92,5.94 -7.92,16.02 V 196 q 0,4.32 -2.34,6.66 -2.16,2.34 -6.66,2.34 -4.32,0 -6.66,-2.16 -2.34,-2.34 -2.34,-6.84 v -80.46 q 0,-4.32 2.34,-6.66 2.34,-2.34 6.66,-2.34 9,0 9,9 v 3.42 q 5.4,-6.3 13.32,-9.9 7.92,-3.6 16.92,-3.6 z"
        fill="#0b2d46"/>
      <rect x="633.87" y="98" width="34" height="102" rx="17" ry="17" fill="#0b2d46"/>
      <circle cx="650.87" cy="48" r="21" fill="#11bdb8"/>
      <path
        d="m 743.20999,105.64 q 12.42,0 22.32,5.4 9.9,5.4 15.48,15.84 5.58,10.26 5.58,24.84 V 196 q 0,3.96 -2.7,6.66 -2.52,2.52 -6.48,2.52 -3.96,0 -6.66,-2.52 -2.52,-2.7 -2.52,-6.66 v -44.28 q 0,-14.58 -7.92,-21.96 -7.74,-7.56 -20.7,-7.56 -7.56,0 -13.86,3.06 -6.12,3.06 -9.72,8.28 -3.42,5.22 -3.42,11.7 V 196 q 0,3.96 -2.52,6.66 -2.52,2.52 -6.66,2.52 -3.96,0 -6.66,-2.52 -2.52,-2.7 -2.52,-6.66 v -80.28 q 0,-4.14 2.52,-6.66 2.7,-2.52 6.66,-2.52 4.14,0 6.66,2.52 2.52,2.52 2.52,6.66 v 1.98 q 5.76,-5.76 13.68,-8.82 7.92,-3.24 16.92,-3.24 z M 858.94984,187 q 3.24,0 5.4,2.52 2.34,2.52 2.34,6.48 0,3.96 -3.06,6.48 -2.88,2.52 -7.56,2.52 h -3.24 q -8.82,0 -16.2,-4.5 -7.2,-4.68 -11.34,-12.6 -4.14,-7.92 -4.14,-17.82 v -44.46 h -8.28 q -3.78,0 -6.12,-2.16 -2.34,-2.16 -2.34,-5.4 0,-3.6 2.34,-5.76 2.34,-2.16 6.12,-2.16 h 8.28 V 84.22 q 0,-3.96 2.52,-6.48 2.52,-2.52 6.48,-2.52 3.96,0 6.48,2.52 2.52,2.52 2.52,6.48 v 25.92 h 15.3 q 3.78,0 6.12,2.16 2.34,2.16 2.34,5.76 0,3.24 -2.34,5.4 -2.34,2.16 -6.12,2.16 h -15.3 v 44.46 q 0,7.2 3.96,12.06 3.96,4.86 9.72,4.86 z"
        fill="#0b2d46"/>
    </g>
  </g>

  <g transform="translate(150 430)">
    <circle cx="18" cy="18" r="18" fill="#11bdb8"/>
    <path d="M18 27c-14-17-21-29-21-41 0-12 9-21 21-21s21 9 21 21c0 12-7 24-21 41z" fill="#0b2d46" transform="translate(0 12) scale(.72)"/>
    <text x="56" y="29" fill="#0b2d46" font-family="Arial, Helvetica, sans-serif" font-size="30" font-weight="700">写真と場所で日常を残す投稿アプリ</text>
  </g>

  <text x="150" y="505" fill="#51666b" font-family="Arial, Helvetica, sans-serif" font-size="24">タイムラインと地図の両方から、写真付きの投稿を振り返れます。</text>
</svg>
