<svg xmlns="http://www.w3.org/2000/svg" width="1200" height="630" viewBox="0 0 1200 630" role="img" aria-label="Footprint">
  <defs>
    <linearGradient id="bg" x1="0" y1="0" x2="1" y2="1">
      <stop offset="0" stop-color="#f7fbfb"/>
      <stop offset="1" stop-color="#e8f6f5"/>
    </linearGradient>
    <pattern id="map-grid" width="84" height="84" patternUnits="userSpaceOnUse">
      <path d="M84 0H0v84" fill="none" stroke="#d7e8e7" stroke-width="1"/>
    </pattern>
  </defs>

  <rect width="1200" height="630" fill="url(#bg)"/>
  <rect width="1200" height="630" fill="url(#map-grid)" opacity=".55"/>

  <path d="M0 468c116-76 219-88 309-36 104 61 195 52 274-27 97-97 207-108 330-32 81 50 176 54 287 12v245H0z" fill="#11bdb8" opacity=".13"/>
  <path d="M92 486c97-65 188-76 272-31 92 49 175 39 249-31 90-85 184-95 282-29 71 48 140 53 207 16" fill="none" stroke="#11bdb8" stroke-width="18" stroke-linecap="round" opacity=".36"/>

  <rect x="78" y="82" width="1044" height="466" rx="28" fill="#ffffff" opacity=".94"/>
  <rect x="78" y="82" width="1044" height="466" rx="28" fill="none" stroke="#cde4e3" stroke-width="2"/>

  <g transform="translate(142 168)">
    <rect x="0" y="0" width="916" height="220" rx="24" fill="#f7fbfb"/>
    <text x="28" y="150" fill="#0b2d46" font-family="Comfortaa, Nunito, Arial, Helvetica, sans-serif" font-size="154" font-weight="700">footprint</text>
    <circle cx="580" cy="28" r="18" fill="#11bdb8"/>
  </g>

  <g transform="translate(150 430)">
    <circle cx="18" cy="18" r="18" fill="#11bdb8"/>
    <path d="M18 27c-14-17-21-29-21-41 0-12 9-21 21-21s21 9 21 21c0 12-7 24-21 41z" fill="#0b2d46" transform="translate(0 12) scale(.72)"/>
    <text x="56" y="29" fill="#0b2d46" font-family="Arial, Helvetica, sans-serif" font-size="30" font-weight="700">写真と場所で日常を残す投稿アプリ</text>
  </g>

  <text x="150" y="505" fill="#51666b" font-family="Arial, Helvetica, sans-serif" font-size="24">タイムラインと地図の両方から、写真付きの投稿を振り返れます。</text>
</svg>
